<?xml version="1.0" encoding="UTF-8"?>
<svg xmlns="http://www.w3.org/2000/svg" viewBox="0 0 217.62 50">
  <defs>
    <style>.cls-1{fill:#f69020;opacity:0.63;}.cls-2{fill:#29bec9;}.cls-3{fill:#70bb47;opacity:0.5;}.cls-4{fill:#636260;}</style>
  </defs>
  <title>logo</title>
  <g id="Layer_2" data-name="Layer 2">
    <g id="Layer_2-2" data-name="Layer 2">
      <path class="cls-1" d="M20.24,43.81c.22,0,.44-.08.67-.14A20.31,20.31,0,1,1,43.58,20.32a11.06,11.06,0,0,1,3-1.24A23.53,23.53,0,0,0,23.52,0,23.52,23.52,0,0,0,6.89,40.15a23.63,23.63,0,0,0,6.5,4.61C15.14,44.57,17.31,44.26,20.24,43.81Z"></path>
      <path class="cls-2" d="M42.21,42.56c7.95-9.62,5.32-16.4,14.87-17.34,0-3.5-4.44-6-8.67-5.69-7.19.62-10.63,7.88-15.38,15-4.19,6.29-9.38,9.48-12.68,10a75.18,75.18,0,0,1-10.27,1.16C24.07,55,38.48,47.08,42.21,42.56Z"></path>
      <path class="cls-3" d="M43.45,35.24c-10.82,4-20.85-1.42-24.92-5.94C13.94,24.2,11.9,15,11.68,10.86a1.29,1.29,0,0,1,.87-1.09C13.72,9.33,25.36,6.19,33.47,13,39.81,18.41,43.22,28.37,44,34.32A.87.87,0,0,1,43.45,35.24Z"></path>
      <path class="cls-3" d="M44,35.38c-9.41,5.36-17.25,6.94-23,4.85C15.91,38.33,9.78,33.3,7,30.13c-.3-.34-.14-.91.22-1.34a18.68,18.68,0,0,1,17.2-6.64C32.66,23.33,40.19,29.69,44,34.3,44.28,34.61,44.39,35.18,44,35.38Z"></path>
      <path class="cls-4" d="M75.61,6.72H69.87V23.09H68.15V6.72H62.43V5.1H75.61Z"></path>
      <path class="cls-4" d="M76.61,14.14a9.08,9.08,0,1,1,18.16,0,9.08,9.08,0,1,1-18.16,0Zm16.44,0a7.36,7.36,0,1,0-14.72,0,7.36,7.36,0,1,0,14.72,0Z"></path>
      <path class="cls-4" d="M117.59,23.09,115.74,8.18l-6.4,13.06h-1.59L101.3,8.13l-1.85,15H97.78L100,5.1h1.61l6.92,14.28L115.45,5.1H117l2.25,18Z"></path>
      <path class="cls-4" d="M122.24,14.14a9.08,9.08,0,1,1,18.16,0,9.08,9.08,0,1,1-18.16,0Zm16.44,0a7.36,7.36,0,1,0-14.72,0,7.36,7.36,0,1,0,14.72,0Z"></path>
      <path class="cls-4" d="M151.21,16l5,7.05h-2.09l-4.93-7h-3v7.05h-1.72V5.1h6.68c3.76,0,5.2,2.72,5.2,5.49S154.92,16,151.21,16Zm-5-1.59h4.55c2.81,0,3.89-1.72,3.89-3.86s-1.15-3.87-3.45-3.87h-5Z"></path>
      <path class="cls-4" d="M167.24,16l5,7.05h-2.09l-4.94-7h-3v7.05h-1.72V5.1h6.68c3.76,0,5.2,2.72,5.2,5.49S171,16,167.24,16Zm-5-1.59h4.54c2.82,0,3.89-1.72,3.89-3.86s-1.15-3.87-3.44-3.87h-5Z"></path>
      <path class="cls-4" d="M175.2,14.14a9.09,9.09,0,1,1,18.17,0,9.09,9.09,0,1,1-18.17,0Zm16.45,0a7.37,7.37,0,1,0-14.73,0,7.37,7.37,0,1,0,14.73,0Z"></path>
      <path class="cls-4" d="M217.62,5.1l-6.08,18h-1.62l-3.6-12.48-3.58,12.48h-1.62L195,5.1h1.83l5,15.3,3.68-12.69h1.48l3.68,12.77,5-15.38Z"></path>
      <path class="cls-4" d="M75.09,43.22v1.62H64.55v-18H74.81v1.62H66.24v6.73h7.47v1.62H66.24v6.39Z"></path>
      <path class="cls-4" d="M91.82,26.86v18H90.05l-9.21-15v15H79.11v-18h1.8l9.19,15v-15Z"></path>
      <path class="cls-4" d="M107.67,43.22v1.62H97.12v-18h10.26v1.62H98.82v6.73h7.47v1.62H98.82v6.39Z"></path>
      <path class="cls-4" d="M118.45,37.8l5,7h-2.09l-4.94-7h-3v7h-1.72v-18h6.68c3.76,0,5.2,2.71,5.2,5.48S122.16,37.72,118.45,37.8Zm-5-1.6H118c2.81,0,3.88-1.72,3.88-3.86s-1.14-3.86-3.44-3.86h-5Z"></path>
      <path class="cls-4" d="M126.44,35.89a9.09,9.09,0,0,1,9.08-9.24,8.85,8.85,0,0,1,5.72,2.09l-1.15,1.17a7.34,7.34,0,0,0-4.57-1.64,7.61,7.61,0,0,0,0,15.22c3.4,0,6-1.94,6.5-5.43l0-.4h-5.4V36.12h7.28c-.08,6.09-3.53,9-8.41,9A9.08,9.08,0,0,1,126.44,35.89Z"></path>
      <path class="cls-4" d="M159.51,26.86l-6.86,9.55v8.43h-1.73V36.41l-6.76-9.55h2l5.61,7.88,5.64-7.88Z"></path>
    </g>
  </g>
</svg>
